<svg xmlns="http://www.w3.org/2000/svg" width="40" height="40" viewBox="0 0 40 40">
  <path fill="#ffffff" fill-rule="evenodd" d="M88.1391542,82 L88.1391542,73.9 L90.5983239,73.9 L91,70.3 L88.1391542,70.3 L88.1391542,68.5468 C88.1391542,67.6198 88.1628338,66.7 89.4581953,66.7 L90.7702202,66.7 L90.7702202,64.126 C90.7702202,64.0873 89.6432469,64 88.5031183,64 C86.1220035,64 84.6310661,65.4913 84.6310661,68.23 L84.6310661,70.3 L82,70.3 L82,73.9 L84.6310661,73.9 L84.6310661,82 L88.1391542,82 Z M87,91.8 C97.3829533,91.8 105.8,83.3829533 105.8,73 C105.8,62.6170467 97.3829533,54.2 87,54.2 C76.6170467,54.2 68.2,62.6170467 68.2,73 C68.2,83.3829533 76.6170467,91.8 87,91.8 Z M87,93 C75.954305,93 67,84.045695 67,73 C67,61.954305 75.954305,53 87,53 C98.045695,53 107,61.954305 107,73 C107,84.045695 98.045695,93 87,93 Z" transform="translate(-67 -53)"/>
</svg>
