<svg xmlns="http://www.w3.org/2000/svg" width="20" height="20" viewBox="0 0 20 20">
  <path fill="#ffffff" fill-rule="evenodd" d="M322.869652,16.1227269 C321.241769,16.1961774 319.830805,16.5941997 318.691486,17.728712 C317.548187,18.8691798 317.155147,20.2855833 317.081514,21.8965313 C317.035742,22.902009 316.768077,30.4981797 317.544207,32.4902762 C318.067597,33.8342218 319.098457,34.8674916 320.454694,35.3925633 C321.087538,35.6387217 321.809936,35.8054742 322.869652,35.8541104 C331.730467,36.2551103 335.015089,36.036744 336.400182,32.4902762 C336.645956,31.858999 336.815113,31.1373975 336.86188,30.080306 C337.26686,21.1967664 336.796207,19.2711724 335.251908,17.728712 C334.027016,16.5068531 332.5862,15.6750759 322.869652,16.1227269 M322.951245,34.0674767 C321.981083,34.0238034 321.454707,33.8620138 321.103459,33.7260312 C320.219865,33.3826005 319.556174,32.721546 319.214876,31.8431178 C318.623823,30.3294421 318.819846,23.1402268 318.872583,21.9769298 C318.924325,20.8374546 319.155174,19.7962442 319.959165,18.992259 C320.954203,17.9996848 322.239792,17.5133234 330.993144,17.908368 C332.135448,17.9599818 333.179243,18.190259 333.985224,18.992259 C334.980262,19.9848333 335.473801,21.2801427 335.071806,29.9999074 C335.028024,30.9676673 334.865833,31.4927391 334.729513,31.8431178 C333.829003,34.1508529 331.757333,34.4714544 322.951245,34.0674767 M331.089663,20.689561 C331.089663,21.3466452 331.623998,21.8806501 332.283709,21.8806501 C332.943419,21.8806501 333.47875,21.3466452 333.47875,20.689561 C333.47875,20.0324768 332.943419,19.4984719 332.283709,19.4984719 C331.623998,19.4984719 331.089663,20.0324768 331.089663,20.689561 M321.862673,25.9879223 C321.862673,28.8028629 324.150266,31.0847911 326.972194,31.0847911 C329.794123,31.0847911 332.081716,28.8028629 332.081716,25.9879223 C332.081716,23.1729818 329.794123,20.8920461 326.972194,20.8920461 C324.150266,20.8920461 321.862673,23.1729818 321.862673,25.9879223 M323.655732,25.9879223 C323.655732,24.1615857 325.140329,22.6796724 326.972194,22.6796724 C328.80406,22.6796724 330.288657,24.1615857 330.288657,25.9879223 C330.288657,27.8152515 328.80406,29.2971649 326.972194,29.2971649 C325.140329,29.2971649 323.655732,27.8152515 323.655732,25.9879223" transform="translate(-317 -16)"/>
</svg>
