<svg xmlns="http://www.w3.org/2000/svg" width="40" height="40" viewBox="0 0 40 40">
  <path fill="#ffffff" fill-rule="evenodd" d="M323.282687,64.1104542 C321.817592,64.1765596 320.547724,64.5347797 319.522337,65.5558408 C318.493368,66.5822618 318.139632,67.857025 318.073363,69.3068782 C318.032168,70.2118081 317.791269,77.0483617 318.489786,78.8412486 C318.960837,80.0507996 319.888611,80.9807424 321.109224,81.453307 C321.678784,81.6748496 322.328942,81.8249268 323.282687,81.8686993 C331.257421,82.2295993 334.21358,82.0330696 335.460164,78.8412486 C335.681361,78.2730991 335.833602,77.6236578 335.875692,76.6722754 C336.240174,68.6770898 335.816587,66.9440552 334.426717,65.5558408 C333.324314,64.4561678 332.02758,63.7075683 323.282687,64.1104542 M323.35612,80.260729 C322.482974,80.2214231 322.009237,80.0758125 321.693113,79.953428 C320.897878,79.6443404 320.300557,79.0493914 319.993389,78.258806 C319.461441,76.8964979 319.637861,70.4262041 319.685325,69.3792368 C319.731893,68.3537091 319.939656,67.4166198 320.663248,66.6930331 C321.558783,65.7997163 322.715813,65.3619911 330.59383,65.7175312 C331.621903,65.7639836 332.561319,65.9712331 333.286702,66.6930331 C334.182236,67.58635 334.626421,68.7521284 334.264625,76.5999167 C334.225222,77.4709006 334.07925,77.9434652 333.956561,78.258806 C333.146103,80.3357676 331.2816,80.624309 323.35612,80.260729 M330.680697,68.2206049 C330.680697,68.8119806 331.161599,69.2925851 331.755338,69.2925851 C332.349077,69.2925851 332.830875,68.8119806 332.830875,68.2206049 C332.830875,67.6292292 332.349077,67.1486247 331.755338,67.1486247 C331.161599,67.1486247 330.680697,67.6292292 330.680697,68.2206049 M322.376406,72.9891301 C322.376406,75.5225766 324.435239,77.576312 326.974975,77.576312 C329.514711,77.576312 331.573544,75.5225766 331.573544,72.9891301 C331.573544,70.4556836 329.514711,68.4028415 326.974975,68.4028415 C324.435239,68.4028415 322.376406,70.4556836 322.376406,72.9891301 M323.990159,72.9891301 C323.990159,71.3454271 325.326296,70.0117051 326.974975,70.0117051 C328.623654,70.0117051 329.959791,71.3454271 329.959791,72.9891301 C329.959791,74.6337264 328.623654,75.9674484 326.974975,75.9674484 C325.326296,75.9674484 323.990159,74.6337264 323.990159,72.9891301 M327,91.8 C337.382953,91.8 345.8,83.3829533 345.8,73 C345.8,62.6170467 337.382953,54.2 327,54.2 C316.617047,54.2 308.2,62.6170467 308.2,73 C308.2,83.3829533 316.617047,91.8 327,91.8 Z M327,93 C315.954305,93 307,84.045695 307,73 C307,61.954305 315.954305,53 327,53 C338.045695,53 347,61.954305 347,73 C347,84.045695 338.045695,93 327,93 Z" transform="translate(-307 -53)"/>
</svg>
