<svg xmlns="http://www.w3.org/2000/svg" width="40" height="40" viewBox="0 0 40 40">
  <path fill="#ffffff" fill-rule="evenodd" d="M152.6,80 L152.6,74.05085 C152.6,72.41885 151.88005,71.5085 150.5889,71.5085 C149.18385,71.5085 148.35,72.4571 148.35,74.05085 L148.35,80 L144.95,80 L144.95,68.95 L148.35,68.95 L148.35,70.1927 C148.35,70.1927 149.41675,68.321 151.82055,68.321 C154.2252,68.321 156,69.7881 156,72.8243 L156,80 L152.6,80 Z M139,65.091 C139,63.9367 139.92905,63 141.0757,63 C142.2215,63 143.15055,63.9367 143.15055,65.091 C143.1514,66.24615 142.2215,67.18285 141.0757,67.18285 C139.92905,67.18285 139,66.24615 139,65.091 Z M139,80 L143.25,80 L143.25,68.95 L139,68.95 L139,80 Z M147,91.8 C157.382953,91.8 165.8,83.3829533 165.8,73 C165.8,62.6170467 157.382953,54.2 147,54.2 C136.617047,54.2 128.2,62.6170467 128.2,73 C128.2,83.3829533 136.617047,91.8 147,91.8 Z M147,93 C135.954305,93 127,84.045695 127,73 C127,61.954305 135.954305,53 147,53 C158.045695,53 167,61.954305 167,73 C167,84.045695 158.045695,93 147,93 Z" transform="translate(-127 -53)"/>
</svg>
