<svg xmlns="http://www.w3.org/2000/svg" width="20" height="20" viewBox="0 0 20 20">
  <path fill="#ffffff" fill-rule="evenodd" d="M158,34 L154,34 L154,27.001 C154,25.081 153.153,24.01 151.634,24.01 C149.981,24.01 149,25.126 149,27.001 L149,34 L145,34 L145,21 L149,21 L149,22.462 C149,22.462 150.255,20.26 153.083,20.26 C155.912,20.26 158,21.986 158,25.558 L158,34 L158,34 Z M140.442,18.921 C139.093,18.921 138,17.819 138,16.46 C138,15.102 139.093,14 140.442,14 C141.79,14 142.883,15.102 142.883,16.46 C142.884,17.819 141.79,18.921 140.442,18.921 L140.442,18.921 Z M138,34 L143,34 L143,21 L138,21 L138,34 Z" transform="translate(-138 -14)"/>
</svg>
