<svg xmlns="http://www.w3.org/2000/svg" width="40" height="40" viewBox="0 0 40 40">
  <path fill="#ffffff" d="M23.661,80.4 C30.4533,80.4 34.1685,74.8592878 34.1685,70.0549152 C34.1685,69.8971914 34.1685,69.7403538 34.1577,69.5844022 C34.8804,69.0704708 35.5041,68.4324869 36,67.7023499 C35.3268,67.9965313 34.6113,68.1896987 33.8796,68.2747632 C34.65,67.8201997 35.2269,67.1060123 35.5032,66.263342 C34.7778,66.6868923 33.9849,66.9855042 33.1578,67.1458862 C31.7592,65.6820678 29.4201,65.6111807 27.9324,66.9881625 C26.9739,67.8760233 26.5662,69.1998397 26.8641,70.462516 C23.895,70.3154253 21.1284,68.9348992 19.2528,66.663854 C18.2727,68.3252702 18.774,70.4501108 20.3967,71.5169615 C19.809,71.5001258 19.2339,71.3441742 18.72,71.062398 L18.72,71.1084746 C18.7209,72.8390057 19.9602,74.3294068 21.6828,74.6723231 C21.1392,74.8185277 20.5686,74.8397938 20.016,74.7343493 C20.4993,76.2158895 21.8862,77.230461 23.4657,77.2597019 C22.158,78.2716151 20.5425,78.8209901 18.8793,78.8192179 C18.5859,78.8183318 18.2925,78.8014961 18,78.7669387 C19.6893,79.8337894 21.654,80.4 23.661,80.3973417 M27,91.8 C37.3829533,91.8 45.8,83.3829533 45.8,73 C45.8,62.6170467 37.3829533,54.2 27,54.2 C16.6170467,54.2 8.2,62.6170467 8.2,73 C8.2,83.3829533 16.6170467,91.8 27,91.8 Z M27,93 C15.954305,93 7,84.045695 7,73 C7,61.954305 15.954305,53 27,53 C38.045695,53 47,61.954305 47,73 C47,84.045695 38.045695,93 27,93 Z" transform="translate(-7 -53)"/>
</svg>
