<svg xmlns="http://www.w3.org/2000/svg" width="20" height="16" viewBox="0 0 20 16">
  <path fill="#ffffff" fill-rule="evenodd" d="M23.29,34 C30.837,34 34.965,27.8436531 34.965,22.5054614 C34.965,22.3302127 34.965,22.1559486 34.953,21.9826691 C35.756,21.4116342 36.449,20.7027633 37,19.8914999 C36.252,20.2183681 35.457,20.4329985 34.644,20.5275146 C35.5,20.0224441 36.141,19.2289025 36.448,18.2926022 C35.642,18.7632137 34.761,19.0950047 33.842,19.2732069 C32.288,17.646742 29.689,17.5679786 28.036,19.0979583 C26.971,20.0844703 26.518,21.5553774 26.849,22.9583511 C23.55,22.794917 20.476,21.2609991 18.392,18.7376156 C17.303,20.5836336 17.86,22.9445675 19.663,24.1299572 C19.01,24.1112509 18.371,23.9379713 17.8,23.6248867 L17.8,23.6760829 C17.801,25.5988952 19.178,27.2548964 21.092,27.6359145 C20.488,27.7983641 19.854,27.8219931 19.24,27.7048325 C19.777,29.3509883 21.318,30.47829 23.073,30.5107799 C21.62,31.6351279 19.825,32.2455445 17.977,32.2435754 C17.651,32.2425909 17.325,32.2238846 17,32.1854874 C18.877,33.3708771 21.06,34 23.29,33.9970464" transform="translate(-17 -18)"/>
</svg>
