<svg xmlns="http://www.w3.org/2000/svg" width="21" height="23" viewBox="0 0 21 23">
  <g fill="none" fill-rule="evenodd" transform="translate(1)">
    <path fill="#E52124" fill-rule="nonzero" d="M19.0442019,5.84432567 L14.8894217,0.966451526 L14.0658004,5.32907052e-15 L4.24728623,5.32907052e-15 C2.92781118,5.32907052e-15 1.86046512,1.08010623 1.86046512,2.41535565 L1.86046512,5.48557886 L3.33962187,5.48557886 L3.33885784,3.00373134 C3.34191395,2.2529918 3.9378552,1.64606024 4.67743357,1.64606024 L13.0771491,1.63832863 L13.0771491,5.66495227 C13.0779131,7.16411187 14.2743798,8.37874815 15.7565927,8.37874815 L18.6652444,8.37874815 L18.5208433,19.9916297 C18.5177871,20.7392766 17.9218459,21.3423423 17.1822675,21.3477545 L4.57123379,21.3415692 C3.89659773,21.3415692 3.35337436,20.6720116 3.34879019,19.8455022 L3.34879019,18.8628143 L1.86810539,18.8628143 L1.86810539,20.328728 C1.86810539,21.8031464 2.84376818,23 4.0417629,23 L17.6131789,22.9961342 C18.9318899,22.9961342 20,21.9106158 20,20.5792322 L20,6.96850208 L19.0442019,5.84432567 Z"/>
    <path stroke="#E52124" stroke-width=".6" d="M6.53421515,5.16007665 C6.82780588,5.30191483 6.76716255,5.49002646 6.67667885,6.36821602 C6.58330737,7.27859581 6.27816554,8.93739833 5.68328334,10.5660225 C5.09032634,12.1976645 4.21147934,13.7951044 3.44525567,14.982119 C2.67806941,16.1671216 2.02254389,16.9366692 1.52199577,17.3823026 C1.02241023,17.8259241 0.67298914,17.9446256 0.448705077,17.9848633 C0.224421013,18.0251011 0.122386204,17.9848633 0.0588550955,17.8671678 C-0.00178823492,17.7484664 -0.0220026784,17.5502953 0.0290147266,17.3128924 C0.0800321315,17.0775014 0.203243977,16.7998607 0.550739887,16.4447623 C0.897273203,16.0886579 1.47097836,15.6550958 2.26896758,15.2497002 C3.0669568,14.8453105 4.08923009,14.4700932 4.92764819,14.2125714 C5.7660663,13.9550496 6.42062923,13.8172352 6.9933718,13.7095991 C7.56611436,13.6009571 8.05607397,13.5214875 8.53737024,13.4822557 C9.01866652,13.4420179 9.48841168,13.4420179 9.94949351,13.4822557 C10.4096127,13.5214875 10.8591435,13.5999512 11.2470683,13.6995397 C11.6378808,13.7971163 11.9641997,13.9178296 12.2500897,14.1039294 C12.5379049,14.292041 12.7814408,14.5475509 12.9056152,14.8342451 C13.0278645,15.1219452 13.0278645,15.4378118 12.9258297,15.6641493 C12.8247574,15.8924987 12.6197252,16.0303131 12.3838901,16.1077709 C12.1470923,16.1882464 11.8814167,16.2073594 11.5647238,16.1077709 C11.2470683,16.0091883 10.8793579,15.7919043 10.4914331,15.5052101 C10.1025457,15.2195219 9.69344389,14.8634175 9.16209281,14.311154 C8.62977913,13.7568785 7.97617879,13.005438 7.42268808,12.2761282 C6.87112255,11.5448065 6.42062923,10.8336037 6.1154874,10.231043 C5.80842037,9.62848221 5.64477964,9.13456345 5.51194187,8.63963875 C5.3791041,8.14571999 5.27706929,7.65381312 5.23567781,7.20918564 C5.19428633,6.76355222 5.21546337,6.36721008 5.25589225,6.05335539 C5.29632114,5.73648286 5.35792706,5.5000859 5.46092447,5.34114667 C5.56295928,5.18321338 5.70734816,5.10474971 5.80938297,5.06451192 C5.91141778,5.02427414 5.97206111,5.02427414 6.03462962,5.01522064 C6.09527295,5.00616714 6.15591628,4.98604825 6.24832517,5.01522064 C6.33880887,5.04539898 6.45624516,5.11983887 6.57560663,5.19629066 C6.77320532,5.32285387 6.32389756,5.058469 6.53421515,5.16007665 Z"/>
  </g>
</svg>
