<svg xmlns="http://www.w3.org/2000/svg" xmlns:xlink="http://www.w3.org/1999/xlink" width="20" height="22" viewBox="0 0 20 22">
  <defs>
    <path id="download-a" d="M20,16 L20,19 C20,20.7 18.7,22 17,22 L3,22 C1.3,22 0,20.7 0,19 L0,16 C0,15.4 0.4,15 1,15 C1.6,15 2,15.4 2,16 L2,19 C2,19.6 2.4,20 3,20 L17,20 C17.6,20 18,19.6 18,19 L18,16 C18,15.4 18.4,15 19,15 C19.6,15 20,15.4 20,16 Z M9.3,15.7 C9.4,15.8 9.5,15.9 9.6,15.9 C9.7,16 9.9,16 10,16 C10.1,16 10.3,16 10.4,15.9 C10.5,15.8 10.6,15.8 10.7,15.7 L14.7,11.7 C15.1,11.3 15.1,10.7 14.7,10.3 C14.3,9.9 13.7,9.9 13.3,10.3 L11,12.6 L11,1 C11,0.4 10.6,0 10,0 C9.4,0 9,0.4 9,1 L9,12.6 L6.7,10.3 C6.3,9.9 5.7,9.9 5.3,10.3 C4.9,10.7 4.9,11.3 5.3,11.7 L9.3,15.7 Z"/>
  </defs>
  <g fill="none" fill-rule="evenodd">
    <mask id="download-b" fill="#fff">
      <use xlink:href="#download-a"/>
    </mask>
    <use fill="#000" fill-rule="nonzero" xlink:href="#download-a"/>
    <g fill="#E52124" mask="url(#download-b)">
      <rect width="24" height="24" transform="translate(-4 -1)"/>
    </g>
  </g>
</svg>
