<svg xmlns="http://www.w3.org/2000/svg" width="41" height="34" viewBox="0 0 41 34">
  <path fill="none" stroke="#E52124" stroke-width="2.3" d="M1180.07617,2156.28906 C1185.45378,2155.19531 1189.44141,2152.80273 1192.03906,2149.11133 C1194.63672,2145.41992 1195.93555,2140.47526 1195.93555,2134.27734 L1195.93555,2134.27734 L1195.93555,2125.9375 L1180.07617,2125.9375 L1180.07617,2144.25781 L1184.04102,2144.25781 C1183.58529,2146.6276 1182.26367,2148.40495 1180.07617,2149.58984 L1180.07617,2149.58984 L1180.07617,2156.28906 Z M1158.88477,2156.28906 C1164.26237,2155.19531 1168.25,2152.80273 1170.84766,2149.11133 C1173.44531,2145.41992 1174.74414,2140.47526 1174.74414,2134.27734 L1174.74414,2134.27734 L1174.74414,2125.9375 L1158.88477,2125.9375 L1158.88477,2144.25781 L1162.84961,2144.25781 C1162.66732,2145.625 1162.30273,2146.67318 1161.75586,2147.40234 C1161.20898,2148.13151 1160.25195,2148.86068 1158.88477,2149.58984 L1158.88477,2149.58984 L1158.88477,2156.28906 Z" transform="translate(-1157 -2124)"/>
</svg>
