<?xml version="1.0" standalone="no"?>
<!DOCTYPE svg PUBLIC "-//W3C//DTD SVG 20010904//EN"
 "http://www.w3.org/TR/2001/REC-SVG-20010904/DTD/svg10.dtd">
<svg version="1.0" xmlns="http://www.w3.org/2000/svg"
 width="459.000000pt" height="459.000000pt" viewBox="0 0 459.000000 459.000000"
 preserveAspectRatio="xMidYMid meet">
<metadata>
Created by potrace 1.11, written by Peter Selinger 2001-2013
</metadata>
<g transform="translate(0.000000,459.000000) scale(0.100000,-0.100000)"
fill="#000000" stroke="none">
<path d="M650 3795 c0 -810 4 -912 50 -1160 46 -250 133 -522 240 -750 28 -59
47 -112 44 -117 -4 -6 -2 -8 3 -5 6 4 21 -14 34 -40 13 -26 36 -67 51 -92 15
-24 25 -48 21 -54 -3 -6 -2 -7 4 -4 5 3 20 -13 33 -36 13 -23 44 -70 68 -104
24 -35 40 -63 36 -63 -5 0 2 -7 14 -16 14 -9 21 -22 18 -31 -3 -8 -2 -12 3 -9
5 3 33 -24 63 -62 106 -130 300 -326 440 -445 42 -36 74 -68 70 -72 -4 -4 -2
-5 4 -3 16 5 164 -104 157 -115 -3 -6 -2 -7 4 -4 6 4 43 -15 84 -41 113 -73
184 -112 206 -112 24 0 195 102 318 189 47 34 91 58 97 55 6 -4 8 -3 5 3 -9
14 29 47 44 37 7 -4 10 -3 6 3 -4 6 14 28 40 49 136 112 326 308 451 466 24
32 49 55 55 51 6 -3 7 -1 3 6 -10 15 13 43 27 34 6 -3 7 -1 3 5 -6 10 59 113
76 120 5 2 8 10 8 17 0 8 7 18 16 23 9 5 16 13 16 18 0 5 24 50 53 99 29 50
59 102 66 118 7 15 15 27 19 27 4 0 7 6 7 13 1 25 80 177 88 170 4 -5 5 -3 2
3 -3 6 3 35 14 65 54 139 81 216 82 234 5 45 31 135 39 135 5 0 7 4 4 9 -4 5
3 47 14 93 29 124 58 316 69 465 6 72 11 135 12 140 1 4 1 333 0 731 l-1 722
-1640 0 -1640 0 0 -765z m3238 138 c-3 -840 -10 -1036 -48 -1258 -11 -66 -20
-122 -20 -124 0 -2 -8 3 -17 10 -15 13 -15 12 -1 -11 14 -23 14 -31 -1 -93 -9
-38 -20 -65 -24 -61 -4 5 -5 1 -2 -8 8 -20 -33 -158 -92 -308 -76 -194 -244
-517 -263 -505 -5 3 -12 0 -16 -6 -4 -8 -3 -9 4 -5 20 12 13 -2 -31 -69 -24
-36 -47 -62 -52 -57 -5 4 -5 2 -2 -4 16 -27 -343 -431 -518 -583 -160 -140
-459 -341 -506 -341 -37 0 -258 134 -326 198 -18 16 -33 28 -33 25 0 -7 -91
67 -203 164 -75 65 -95 88 -85 95 10 8 9 9 -4 4 -12 -4 -49 29 -133 116 -63
67 -113 123 -111 126 2 2 -10 16 -27 32 -28 25 -30 29 -17 46 14 17 13 18 -1
6 -15 -11 -21 -7 -46 25 -49 64 -124 173 -119 173 3 0 -6 12 -19 26 -14 15
-22 30 -20 34 3 5 -1 10 -7 13 -10 3 -10 7 0 19 11 13 10 16 -4 14 -23 -1 -95
121 -88 149 4 14 3 16 -4 7 -6 -9 -24 20 -60 95 -46 99 -111 252 -117 278 -1
5 -7 24 -14 40 -24 59 -82 271 -106 390 -56 279 -58 300 -62 1148 l-4 787
1600 0 1601 0 -2 -587z"/>
<path d="M750 3870 l0 -560 1540 0 1540 0 0 560 0 560 -1540 0 -1540 0 0 -560z
m3050 0 l0 -510 -392 1 c-216 1 -382 5 -368 9 14 4 37 8 52 9 38 1 39 21 1 54
-25 22 -33 37 -33 62 0 38 12 45 79 45 26 0 52 5 58 11 13 13 103 -7 103 -23
0 -19 78 32 89 60 14 34 2 75 -28 94 -19 12 -19 12 2 23 36 18 51 59 36 103
-7 20 -12 47 -10 59 2 23 -21 76 -47 106 -8 9 -29 17 -46 17 l-31 0 25 13 c53
26 31 98 -34 115 -26 7 -31 12 -28 36 2 15 -4 38 -12 51 -9 13 -16 31 -16 40
0 9 -12 21 -27 28 -26 11 -35 25 -36 53 0 11 -49 18 -112 17 -22 -1 -56 -2
-75 -2 -22 0 -49 -10 -70 -26 -18 -14 -42 -25 -53 -25 -10 0 -21 -9 -24 -20
-3 -11 -10 -20 -16 -20 -33 0 -65 -78 -38 -94 15 -10 0 -46 -20 -46 -40 0 -65
-82 -34 -114 19 -19 19 -21 -7 -46 -13 -12 -35 -20 -55 -20 -41 0 -61 -30 -44
-68 8 -17 9 -28 1 -36 -5 -5 -10 -18 -10 -28 0 -10 -4 -18 -9 -18 -15 0 -22
-32 -10 -46 6 -8 24 -14 39 -14 36 0 52 -33 34 -75 -8 -19 -9 -37 -4 -45 5 -8
6 -26 3 -40 -6 -33 20 -59 45 -43 18 11 45 6 38 -6 -10 -16 30 -7 51 11 13 13
32 19 51 17 21 -3 39 4 58 20 19 16 29 20 32 12 2 -7 13 -20 24 -30 31 -29 22
-90 -18 -116 -37 -25 -33 -45 9 -45 18 0 39 -5 47 -10 10 -6 -224 -10 -670 -9
-391 0 -676 4 -665 9 11 5 32 9 48 9 35 1 35 20 -3 56 -21 20 -30 38 -30 61 0
37 12 44 79 44 26 0 52 5 58 11 9 9 25 8 62 -5 46 -15 54 -15 80 -2 16 9 31
13 35 11 3 -3 4 -2 1 2 -3 3 0 12 7 20 15 18 13 70 -4 90 -7 8 -21 19 -33 23
-20 9 -20 9 1 9 44 2 69 63 49 121 -5 14 -8 35 -6 47 2 22 -31 97 -49 108 -6
4 -8 10 -6 14 3 4 -12 5 -32 3 -36 -3 -36 -3 -12 10 37 20 39 69 4 97 -15 11
-35 21 -45 21 -15 0 -19 7 -19 33 0 18 -7 42 -15 53 -8 10 -15 27 -15 37 0 11
-12 23 -30 30 -18 7 -30 19 -30 29 0 34 -41 43 -191 39 -20 0 -51 -11 -74 -27
-23 -15 -47 -24 -61 -21 -13 2 -23 1 -22 -2 2 -23 -4 -41 -14 -41 -34 0 -66
-77 -39 -94 16 -10 0 -46 -20 -46 -23 0 -60 -56 -52 -79 3 -9 13 -24 21 -33
13 -16 13 -20 -2 -43 -14 -21 -24 -26 -48 -23 -24 2 -35 -3 -51 -24 -14 -19
-17 -31 -10 -40 13 -18 11 -37 -11 -80 -23 -47 -16 -68 22 -68 41 0 59 -35 38
-75 -10 -18 -12 -34 -6 -45 5 -9 6 -27 3 -38 -8 -32 14 -54 48 -47 15 4 37 1
49 -7 19 -11 24 -10 37 10 12 17 25 22 58 22 29 0 47 6 60 20 14 16 21 17 32
8 8 -6 12 -17 9 -23 -2 -7 3 -12 12 -11 13 1 18 -9 20 -41 3 -40 1 -44 -33
-64 -45 -27 -41 -42 15 -51 23 -4 45 -10 48 -13 3 -3 -171 -5 -386 -5 l-392 0
0 510 0 510 1505 0 1505 0 0 -510z m-2275 410 c23 -26 40 -25 60 2 13 20 18
21 36 10 11 -7 29 -10 40 -7 18 6 19 5 7 -14 -11 -18 -11 -23 2 -32 8 -5 25
-8 38 -6 24 5 29 -12 10 -31 -12 -12 -4 -17 36 -24 26 -4 32 -26 10 -35 -10
-4 -22 0 -29 10 -7 10 -22 17 -34 17 -15 0 -25 9 -32 30 -13 36 -49 43 -49 9
0 -11 -4 -17 -10 -14 -5 3 -10 16 -10 27 0 20 -1 20 -20 3 -11 -10 -17 -22
-13 -28 4 -6 -4 -8 -20 -5 -26 5 -27 -7 -3 -43 15 -22 17 -22 48 -10 19 7 29
7 34 0 3 -6 17 -9 30 -6 19 3 24 0 24 -15 0 -11 -4 -16 -10 -13 -5 3 -24 -2
-42 -12 -18 -9 -39 -16 -45 -15 -7 2 -27 -7 -43 -20 -25 -18 -33 -20 -39 -9
-6 9 -11 10 -15 2 -12 -19 -38 -12 -61 15 l-22 26 -27 -34 c-28 -37 -51 -44
-61 -19 -6 16 19 41 42 41 7 0 13 7 13 16 0 8 5 25 12 37 l12 22 6 -25 c6 -26
30 -36 58 -24 9 4 21 6 25 5 5 -1 6 3 2 9 -3 5 -18 10 -33 10 -24 0 -25 1 -7
14 11 8 16 19 12 30 -7 17 -37 23 -37 6 0 -5 -7 -10 -15 -10 -10 0 -15 10 -15
26 0 21 4 25 19 21 14 -3 17 0 14 14 -4 14 -1 18 10 13 10 -3 23 6 38 25 27
37 30 37 54 11z m1410 0 c23 -25 33 -25 62 1 18 18 25 20 37 10 9 -7 24 -10
36 -6 19 6 20 5 8 -14 -11 -18 -11 -23 2 -31 8 -5 25 -10 38 -10 24 0 28 -10
10 -28 -12 -12 -4 -17 36 -24 26 -4 32 -26 10 -35 -10 -4 -22 0 -29 10 -7 10
-21 17 -32 17 -13 0 -25 11 -33 30 -15 37 -50 42 -51 8 l0 -23 -11 23 c-14 27
-28 28 -35 2 -3 -11 -14 -20 -24 -20 -11 0 -19 -6 -19 -14 0 -18 40 -47 52
-40 5 4 29 3 54 -1 50 -7 60 -30 17 -37 -16 -3 -37 -9 -47 -13 -15 -7 -17 -5
-11 6 5 7 -11 -1 -35 -19 -27 -20 -48 -28 -53 -23 -6 6 -17 5 -29 -2 -16 -10
-22 -8 -38 11 -24 29 -43 28 -60 -2 -13 -26 -46 -40 -56 -25 -9 14 4 41 16 34
5 -3 10 -1 10 4 0 6 7 11 15 11 8 0 15 8 15 18 0 10 7 27 16 38 15 18 15 18
11 -9 -4 -27 -3 -28 31 -25 39 3 58 28 22 28 -19 0 -21 2 -9 16 20 25 19 52
-3 46 -10 -2 -18 -8 -18 -13 0 -5 -7 -9 -15 -9 -9 0 -15 9 -15 23 0 17 11 30
39 45 22 13 43 31 46 42 8 25 17 25 40 0z m-1145 -191 c0 -13 8 -17 32 -15 23
1 33 -4 36 -16 2 -13 -1 -16 -12 -12 -10 4 -23 -2 -34 -15 l-17 -20 -28 24
c-17 15 -25 30 -21 38 6 9 4 9 -7 0 -16 -15 -69 -17 -69 -3 0 6 9 10 20 10 11
0 23 6 26 13 7 20 74 16 74 -4z m1410 0 c0 -13 8 -17 31 -15 19 0 34 -5 36
-12 3 -8 -1 -12 -10 -10 -9 2 -22 -6 -30 -16 -15 -21 -53 -15 -44 7 3 8 -10
13 -42 15 -47 3 -85 22 -43 22 13 0 25 6 28 13 7 20 74 16 74 -4z m-1615 -59
c3 -5 17 -10 31 -10 13 0 24 -5 24 -12 0 -20 32 -48 57 -48 12 0 23 -4 23 -8
0 -5 -23 -9 -51 -9 -28 0 -56 -6 -62 -12 -6 -6 -7 -11 -1 -11 5 0 24 -13 42
-30 37 -34 40 -34 79 -19 15 6 48 13 73 14 70 3 90 13 91 43 l2 27 4 -28 c3
-16 11 -31 19 -34 8 -3 14 -12 14 -20 0 -12 -8 -13 -40 -8 -30 5 -40 3 -40 -7
0 -29 -17 -40 -49 -33 -17 4 -29 10 -26 15 3 5 1 11 -4 14 -13 8 -6 -40 8 -57
6 -8 9 -16 6 -18 -2 -3 17 -2 43 1 36 4 49 10 57 28 13 28 38 28 54 -1 10 -18
9 -28 -2 -50 -8 -15 -17 -24 -20 -20 -4 3 -24 9 -44 12 -28 5 -41 3 -50 -9
-15 -20 -47 -2 -51 29 -3 19 -8 21 -38 15 -33 -6 -35 -5 -29 19 9 34 -5 39
-53 20 -25 -9 -51 -13 -68 -9 l-28 7 24 12 c35 18 34 31 -3 45 -34 12 -93 7
-103 -9 -8 -14 -31 -10 -49 8 -14 14 -20 14 -37 4 -17 -10 -23 -9 -41 6 -11
10 -17 12 -13 6 4 -7 3 -13 -2 -13 -5 0 -14 -10 -20 -22 -8 -18 -11 -19 -11
-5 -1 13 -10 17 -43 18 -24 0 -36 3 -28 6 8 3 25 15 37 25 16 15 29 19 49 14
17 -5 35 -1 50 9 14 9 29 13 33 10 5 -3 22 0 37 5 20 8 32 7 49 -4 33 -22 76
-24 89 -4 14 23 -6 47 -27 30 -10 -9 -17 -7 -30 8 -19 23 -47 26 -65 8 -8 -8
-15 -9 -23 -1 -11 11 -56 6 -65 -8 -9 -15 -44 -10 -44 6 0 8 7 15 15 15 8 0
24 9 35 20 19 19 22 19 36 5 15 -15 87 -17 77 -2 -6 10 9 9 26 -2 9 -6 21 -3
34 10 23 21 33 24 42 9z m1410 0 c3 -5 17 -10 31 -10 14 0 24 -6 24 -14 0 -22
29 -46 56 -46 13 0 24 -4 24 -9 0 -5 -22 -8 -50 -7 -57 3 -66 -14 -27 -50 31
-29 53 -35 85 -23 15 6 48 12 73 14 71 4 89 13 89 41 0 14 4 23 9 20 5 -3 7
-15 4 -26 -3 -12 1 -22 11 -26 9 -3 16 -13 16 -21 0 -12 -8 -13 -40 -8 -27 5
-40 3 -40 -5 0 -6 -4 -9 -9 -6 -5 4 -7 -3 -4 -15 6 -20 3 -21 -38 -14 l-43 7
16 -23 c11 -18 26 -25 56 -27 35 -3 43 1 58 22 20 32 41 33 55 3 7 -17 6 -30
-4 -50 -9 -17 -18 -24 -22 -18 -8 15 -71 14 -94 -1 -23 -14 -51 4 -51 33 0 15
-6 17 -35 12 -34 -6 -35 -5 -29 24 5 25 2 31 -15 36 -12 3 -19 1 -16 -3 8 -12
-70 -34 -91 -26 -16 6 -15 8 4 22 30 21 28 28 -12 42 -28 10 -42 10 -82 -4
-45 -15 -48 -15 -61 2 -11 16 -17 17 -33 6 -17 -10 -25 -9 -47 5 -15 10 -24
13 -21 8 3 -6 0 -19 -8 -30 -8 -10 -14 -13 -14 -7 0 7 -17 12 -42 13 -24 0
-36 3 -28 6 8 3 25 15 37 25 16 15 29 19 49 14 17 -5 35 -1 51 9 14 9 27 14
30 11 3 -2 16 -1 30 5 17 6 33 5 54 -7 42 -21 83 -15 87 13 3 18 -1 22 -25 20
-15 -1 -27 3 -26 8 1 6 -17 11 -42 11 -24 0 -41 -4 -38 -9 4 -7 -28 -3 -65 9
-7 2 -11 0 -8 -5 3 -5 -1 -12 -10 -15 -25 -10 -34 -7 -34 9 0 8 6 15 13 15 8
0 22 9 32 20 16 18 19 18 42 3 19 -13 29 -14 50 -4 14 6 33 9 42 6 9 -3 26 2
37 10 23 17 31 18 39 5z m-1285 -20 c0 -5 -2 -10 -4 -10 -3 0 -8 5 -11 10 -3
6 -1 10 4 10 6 0 11 -4 11 -10z m1430 6 c0 -9 -30 -14 -35 -6 -4 6 3 10 14 10
12 0 21 -2 21 -4z m-1292 -60 c2 -11 -1 -14 -12 -10 -9 3 -23 1 -31 -6 -18
-15 -40 -8 -53 17 -9 17 -6 18 41 17 39 -2 53 -6 55 -18z m1410 1 c2 -11 -3
-14 -17 -10 -13 3 -21 1 -21 -7 0 -18 -41 -7 -56 15 -13 20 -11 20 39 19 38
-2 53 -6 55 -17z m-1753 -177 c-9 -14 -26 -12 -45 5 -17 15 -50 11 -50 -6 0
-5 -6 -9 -12 -9 -7 0 -20 -15 -28 -33 -21 -44 -50 -49 -50 -8 0 24 -5 32 -25
37 -15 4 -25 13 -25 24 0 21 21 32 41 19 20 -12 56 -11 82 3 12 7 34 11 49 9
14 -1 29 3 33 10 6 8 12 3 22 -15 8 -14 11 -31 8 -36z m1419 -1 c-8 -14 -25
-11 -46 8 -17 15 -19 15 -36 0 -10 -10 -23 -17 -28 -17 -5 0 -16 -15 -25 -33
-22 -44 -49 -48 -49 -8 0 18 -5 31 -12 31 -7 0 -22 7 -32 15 -19 14 -19 15 -1
35 16 18 20 19 27 5 11 -18 46 -19 85 -4 15 7 40 11 55 10 14 -1 29 3 33 9 5
7 12 2 21 -15 8 -15 11 -31 8 -36z m-1309 -25 c12 -17 59 -23 85 -11 12 6 19
-6 33 -52 18 -60 35 -76 68 -66 23 8 25 31 4 39 -25 9 -17 23 13 21 39 -3 39
-3 45 -25 4 -16 12 -20 39 -18 29 3 33 0 33 -22 0 -19 -5 -24 -20 -22 -39 6
-130 4 -152 -3 -15 -5 -23 -3 -23 4 0 7 5 9 13 5 6 -4 3 2 -7 14 -13 16 -31
22 -58 22 -21 0 -38 5 -38 11 0 8 -12 10 -36 6 -44 -7 -42 12 4 32 41 19 41
34 -1 49 -43 15 -47 15 -47 -3 0 -9 -9 -15 -25 -15 -28 0 -32 12 -11 29 11 9
15 9 19 -1 4 -8 6 -7 6 5 1 22 40 23 56 1z m1405 7 c0 -15 59 -31 83 -22 19 7
23 3 34 -28 7 -20 13 -43 13 -52 0 -19 44 -41 65 -33 19 8 19 30 0 38 -8 3
-15 10 -15 15 0 8 24 9 61 2 4 0 9 -10 12 -21 4 -16 12 -20 39 -18 29 3 33 0
33 -22 0 -19 -5 -24 -20 -22 -42 5 -131 4 -152 -3 -17 -6 -22 -3 -25 17 -2 19
-10 23 -45 26 -29 2 -43 8 -43 17 0 11 -6 12 -31 3 -16 -6 -33 -8 -36 -4 -10
9 16 34 42 40 35 9 31 29 -7 44 -28 10 -35 10 -44 -3 -11 -15 -44 -21 -44 -8
0 3 7 15 17 25 16 18 63 25 63 9z m-1540 -25 c0 -2 2 -11 5 -19 5 -10 -1 -13
-24 -9 -20 3 -28 8 -24 18 4 12 43 21 43 10z m1420 0 c0 -2 3 -12 6 -21 5 -13
2 -15 -22 -9 -36 8 -38 10 -29 23 6 10 45 16 45 7z m-1350 -74 c0 -14 -11 -21
-26 -15 -21 8 -17 23 6 23 11 0 20 -4 20 -8z m1410 -1 c0 -18 -18 -21 -30 -6
-10 13 -9 15 9 15 11 0 21 -4 21 -9z m-1547 -10 c21 9 31 9 40 0 8 -8 8 -11
-1 -11 -7 0 -17 -11 -22 -25 -9 -23 -14 -25 -45 -19 -26 5 -41 2 -54 -10 -17
-16 -18 -15 -14 9 6 28 1 30 -28 15 -20 -11 -22 -8 -13 26 5 19 10 20 57 12
35 -5 61 -4 80 3z m1462 -1 c3 -5 -1 -10 -9 -10 -9 0 -16 -9 -16 -20 0 -26
-19 -34 -53 -21 -17 7 -28 7 -32 1 -10 -16 -25 -12 -25 6 0 12 -6 15 -25 10
-26 -7 -31 0 -16 23 7 11 22 12 63 8 29 -4 60 -2 68 3 20 13 37 13 45 0z
m-1265 -100 c0 -33 7 -77 15 -97 12 -29 13 -38 3 -45 -15 -9 -50 -10 -71 -2
-13 5 -12 9 5 26 19 19 20 29 15 99 -6 74 -5 79 13 79 18 0 20 -7 20 -60z
m1412 -20 c3 -58 10 -85 23 -100 10 -11 14 -20 9 -21 -5 0 -18 -2 -29 -5 -11
-2 -30 -2 -43 1 -21 5 -22 6 -6 31 13 20 16 40 11 99 -5 68 -4 75 12 75 16 0
19 -11 23 -80z"/>
<path d="M2840 4219 c0 -5 5 -7 10 -4 6 3 10 8 10 11 0 2 -4 4 -10 4 -5 0 -10
-5 -10 -11z"/>
<path d="M757 3233 c-10 -10 -8 -137 3 -254 22 -216 76 -477 134 -646 14 -40
22 -73 19 -73 -3 0 0 -6 6 -13 6 -8 12 -22 14 -33 2 -10 14 -41 26 -69 13 -27
24 -62 25 -77 1 -15 5 -30 9 -35 5 -4 5 1 2 12 -4 11 14 -22 39 -74 25 -51 43
-98 39 -105 -3 -6 -2 -8 2 -3 7 6 123 -190 128 -217 1 -5 9 -17 17 -26 8 -9
43 -57 77 -106 34 -49 100 -135 147 -191 46 -56 81 -104 78 -108 -4 -4 -2 -5
3 -4 6 1 66 -54 135 -122 102 -102 247 -231 318 -284 8 -5 24 -19 36 -30 12
-11 24 -20 26 -21 3 -1 43 -26 90 -56 47 -30 103 -65 126 -77 l41 -23 68 41
c91 55 239 159 322 225 37 30 71 52 77 49 5 -3 6 -1 2 5 -7 12 42 54 55 46 5
-3 8 -1 7 4 -2 5 41 55 94 111 161 168 338 385 425 523 17 26 32 45 35 43 3
-3 5 1 5 7 0 7 24 53 53 102 67 117 108 198 163 327 46 108 127 341 127 365 0
8 3 14 8 14 4 0 7 10 8 23 0 12 10 69 22 126 23 108 52 328 52 394 0 21 3 36
8 34 4 -3 5 41 2 96 l-5 102 -1531 3 c-842 1 -1534 -1 -1537 -5z m3037 -115
c-7 -129 -33 -331 -60 -463 -23 -112 -78 -317 -92 -340 -4 -5 -8 -17 -9 -26
-1 -9 -8 -29 -14 -45 -7 -16 -13 -33 -14 -39 -10 -43 -80 -193 -88 -188 -6 3
-7 1 -3 -5 8 -13 -64 -160 -147 -297 -76 -127 -89 -144 -105 -145 -7 0 -10 -5
-7 -10 6 -9 -32 -71 -55 -90 -3 -3 -13 -18 -23 -33 -10 -15 -23 -25 -29 -21
-6 4 -8 3 -5 -4 8 -11 -70 -112 -105 -137 -13 -8 -19 -15 -14 -15 4 0 -6 -15
-22 -32 -115 -127 -176 -187 -184 -182 -5 3 -7 2 -6 -3 5 -14 -156 -153 -170
-148 -7 3 -10 1 -7 -5 7 -12 -125 -111 -138 -103 -6 3 -7 1 -3 -5 7 -11 -6
-17 -27 -13 -5 1 -6 -2 -3 -7 3 -5 -7 -15 -22 -23 -15 -8 -29 -17 -32 -20 -9
-12 -107 -69 -118 -69 -43 0 -499 350 -486 372 4 6 2 8 -4 4 -15 -9 -197 168
-188 183 4 6 4 10 -1 9 -10 -3 -63 42 -63 54 0 5 5 6 12 2 7 -4 8 -3 4 4 -4 6
-12 9 -19 6 -18 -6 -151 160 -265 330 -188 282 -351 677 -426 1032 -26 127
-51 310 -61 462 l-7 92 1505 0 1505 0 -4 -82z"/>
<path d="M1789 3113 c-10 -2 -23 -27 -33 -63 -14 -50 -21 -60 -48 -69 -38 -13
-101 -14 -93 -2 3 5 0 13 -6 17 -8 4 -9 3 -5 -4 10 -17 -16 -15 -40 3 -30 23
-41 18 -49 -22 -22 -117 -105 -186 -224 -187 l-65 -1 5 -60 c4 -58 4 -107 -1
-314 -1 -53 -10 -123 -20 -160 -47 -172 -43 -316 11 -385 12 -15 45 -38 73
-50 28 -13 57 -30 65 -40 8 -10 17 -56 22 -111 4 -52 13 -105 20 -117 7 -13
12 -25 11 -28 -1 -3 20 -6 48 -8 43 -3 57 1 85 22 54 41 85 89 115 177 16 44
31 84 35 87 4 4 4 -35 0 -85 -7 -89 -6 -93 13 -93 11 0 23 7 26 16 3 9 11 12
18 8 7 -4 10 -4 6 1 -4 4 1 24 12 44 27 54 52 157 54 229 2 58 5 65 42 103 48
49 118 95 161 104 35 7 98 -19 88 -36 -4 -5 -1 -8 6 -7 18 4 97 -115 105 -158
10 -53 -12 -136 -61 -230 -23 -46 -40 -86 -37 -89 3 -3 18 -5 34 -5 30 0 78
-26 78 -42 0 -5 7 -16 16 -25 12 -13 20 -13 40 -4 43 19 71 13 98 -21 l25 -32
26 24 c15 14 34 25 43 25 23 1 54 -14 48 -23 -10 -16 49 -9 61 7 13 20 88 28
98 11 4 -7 18 -3 38 9 18 11 55 25 82 31 28 7 78 27 112 45 33 19 64 31 68 27
4 -4 5 -2 3 3 -1 6 16 28 38 50 103 99 200 270 274 480 51 146 59 162 102 201
47 45 80 48 114 13 17 -18 38 -29 55 -29 68 0 80 77 25 159 -19 28 -33 51 -30
51 2 0 -5 9 -17 21 -16 16 -20 30 -17 65 3 43 3 44 -27 44 -38 0 -78 27 -71
47 3 8 2 11 -3 8 -6 -3 -13 14 -16 38 -10 67 -14 69 -74 51 -62 -18 -92 -10
-137 37 -15 16 -31 29 -35 29 -4 0 -22 -14 -39 -31 -28 -28 -35 -31 -77 -26
-25 3 -48 9 -52 13 -8 12 -25 16 -86 21 -59 5 -81 -8 -94 -54 -11 -36 -1 -52
47 -77 15 -8 36 -25 48 -38 23 -27 111 -204 117 -234 2 -11 9 -32 16 -48 6
-16 9 -36 7 -43 -3 -8 -2 -12 3 -8 15 9 34 -134 28 -210 -9 -112 -70 -225
-140 -258 -43 -21 -73 -12 -110 33 -27 32 -69 151 -71 202 -1 15 -4 28 -8 28
-11 0 -28 90 -43 235 -14 125 -18 142 -39 160 -32 27 -46 57 -46 98 0 30 -4
35 -29 40 -45 9 -64 34 -56 75 7 36 8 36 -39 16 -16 -6 -38 25 -57 81 -18 55
-25 61 -47 42 -17 -16 -20 -15 -44 11 -14 15 -31 37 -37 49 -8 16 -19 22 -40
20 -17 -1 -27 -7 -24 -13 8 -20 -16 -26 -39 -10 -12 9 -34 33 -48 53 -23 35
-65 56 -54 29 3 -7 -4 -20 -14 -29 -18 -16 -21 -15 -73 33 l-54 51 -23 -51
c-19 -45 -25 -50 -45 -44 -36 11 -118 77 -113 91 3 7 4 12 3 12 -1 -1 -9 -3
-18 -6z m81 -131 c6 -6 -27 3 -52 13 -12 5 -18 3 -18 -5 0 -7 8 -19 18 -27 9
-8 11 -12 5 -8 -20 10 -15 -23 5 -35 14 -9 14 -10 -6 -5 -21 6 -23 5 -13 -13
11 -22 32 -32 62 -32 33 0 12 -17 -28 -24 -21 -4 -46 -9 -55 -12 -15 -5 -18 1
-18 39 0 24 5 69 11 99 l11 56 37 -21 c20 -11 38 -23 41 -25z m136 26 c15 -19
16 -20 2 -9 -33 25 -21 -15 13 -43 17 -14 27 -26 22 -26 -5 0 -18 9 -30 19
-11 11 -25 16 -32 11 -9 -5 -3 -15 19 -34 35 -29 32 -35 -5 -10 -33 21 -32 4
1 -30 l27 -26 -47 0 c-34 0 -46 4 -46 15 0 13 51 155 56 155 0 0 9 -10 20 -22z
m64 -44 c0 -2 -9 0 -20 6 -11 6 -20 13 -20 16 0 2 9 0 20 -6 11 -6 20 -13 20
-16z m86 14 c4 -6 3 -8 -4 -4 -25 15 -22 -18 4 -47 16 -17 20 -25 9 -17 -11 8
-23 19 -27 25 -4 5 -10 1 -14 -10 -4 -11 -12 -23 -18 -27 -6 -4 -5 -12 3 -22
12 -14 11 -16 -6 -16 -33 0 -33 10 -2 71 29 59 41 69 55 47z m-242 -7 c4 -5
-3 -7 -14 -4 -23 6 -26 13 -6 13 8 0 17 -4 20 -9z m-333 -41 c5 0 9 -7 9 -15
0 -8 4 -15 10 -15 5 0 7 -6 4 -14 -7 -19 9 -27 70 -36 l51 -8 -57 -1 c-67 -1
-77 -18 -18 -27 l41 -7 -58 -23 c-32 -13 -64 -22 -70 -19 -7 2 -13 -2 -13 -10
0 -8 -9 -19 -21 -26 -18 -9 -20 -8 -16 8 3 10 11 60 18 111 9 73 15 92 26 87
8 -3 19 -5 24 -5z m699 -5 c-6 -8 -9 -19 -5 -25 3 -5 1 -10 -6 -10 -7 0 -9 -8
-6 -21 4 -17 3 -19 -6 -10 -16 16 -30 14 -23 -4 3 -9 0 -15 -9 -15 -22 0 -18
17 7 34 12 9 18 16 13 16 -4 0 2 11 15 25 25 27 40 35 20 10z m-562 -12 c-16
-2 -40 -2 -55 0 -16 2 -3 4 27 4 30 0 43 -2 28 -4z m-50 -30 c-10 -2 -26 -2
-35 0 -10 3 -2 5 17 5 19 0 27 -2 18 -5z m-164 -40 c-9 -37 -31 -61 -76 -84
-50 -26 -58 -24 -17 4 18 12 47 41 64 64 16 23 31 42 33 42 1 1 -1 -11 -4 -26z
m906 -7 c11 -15 11 -18 2 -12 -10 6 -13 3 -12 -10 4 -36 0 -43 -21 -39 -45 9
-50 24 -16 55 18 16 32 28 32 27 1 -1 7 -11 15 -21z m-443 -22 c4 -11 -2 -23
-17 -34 -19 -15 -29 -16 -54 -7 -17 6 -25 12 -19 14 7 3 9 11 6 20 -4 11 -2
14 5 9 7 -4 12 -2 12 3 0 18 60 13 67 -5z m136 -1 c-2 -7 3 -12 10 -10 18 3
14 -34 -5 -47 -14 -9 -21 -6 -34 12 -9 13 -30 32 -48 43 l-31 20 55 -3 c38 -2
54 -7 53 -15z m890 1 c36 -17 73 -76 61 -96 -4 -6 -3 -8 3 -5 9 6 63 -150 63
-180 0 -7 5 -13 10 -13 6 0 10 4 10 9 0 5 11 12 24 15 20 5 24 12 24 36 -1 17
-5 30 -10 30 -5 0 -6 5 -2 11 13 21 24 -15 24 -79 0 -56 2 -63 24 -74 33 -14
51 -6 54 26 1 20 -3 26 -18 26 -10 0 -21 4 -24 9 -3 4 5 6 18 4 16 -3 25 1 30
14 3 10 9 23 12 30 3 6 -5 13 -18 16 -20 4 -20 4 5 6 38 2 34 19 -8 27 -49 9
-51 19 -2 19 50 0 65 24 15 26 l-33 2 34 6 c49 9 53 31 5 31 -46 0 -41 8 8 12
44 2 41 28 -4 28 -27 0 -88 24 -88 36 0 2 10 -1 22 -7 12 -6 45 -12 73 -13
l52 -1 -23 -109 c-13 -60 -30 -131 -38 -157 -12 -41 -12 -49 0 -49 7 0 16 11
20 24 4 17 11 22 25 19 18 -5 27 11 12 20 -5 2 -2 2 4 1 7 -2 17 5 22 14 6 9
11 14 11 10 0 -4 -14 -30 -32 -57 -35 -58 -29 -82 9 -36 16 19 27 26 30 18 2
-7 12 -13 20 -13 10 0 13 6 8 18 -5 14 -4 15 7 4 10 -10 6 -18 -23 -41 -19
-16 -43 -45 -54 -65 -11 -20 -23 -36 -28 -36 -4 0 -6 -4 -2 -9 3 -5 0 -15 -7
-23 -7 -7 -13 -17 -13 -23 0 -20 -48 -125 -57 -125 -5 0 -7 -4 -3 -9 7 -12
-72 -178 -125 -261 -50 -77 -109 -142 -123 -133 -6 3 -7 1 -3 -5 8 -13 -63
-71 -124 -102 -46 -24 -190 -42 -190 -24 0 5 -17 9 -37 10 -20 0 -39 6 -41 12
-2 7 -8 10 -13 7 -24 -16 -156 80 -226 164 -57 70 -148 244 -137 263 4 6 3 8
-4 4 -6 -3 -13 2 -17 13 -10 34 -69 88 -108 101 -21 6 -53 9 -72 6 -43 -8
-124 -64 -185 -128 -43 -46 -48 -54 -53 -112 -3 -34 -14 -104 -24 -156 -15
-77 -18 -87 -20 -55 -2 22 -8 82 -14 134 -18 153 -27 158 -58 34 -41 -165
-133 -313 -194 -313 -30 0 -32 6 -42 115 -8 89 -27 121 -96 162 -77 44 -93 79
-93 203 -1 112 10 174 27 164 9 -5 9 -4 0 6 -23 25 31 164 68 175 30 10 39 -9
39 -79 0 -51 2 -57 18 -51 9 4 22 8 29 8 7 0 10 4 7 8 -6 11 37 39 56 36 28
-5 40 -18 40 -46 0 -40 7 -42 47 -15 41 28 75 31 97 8 19 -18 20 -33 6 -69
-13 -35 -50 -31 -68 8 -18 37 -36 35 -29 -3 8 -40 0 -58 -35 -76 -50 -26 -68
-68 -68 -161 0 -46 4 -83 9 -83 12 0 21 26 21 60 0 27 22 60 40 60 11 0 33 57
27 73 -2 7 4 23 14 35 15 19 22 21 39 12 50 -27 90 0 105 73 7 36 23 34 33 -5
4 -17 14 -34 21 -36 11 -4 12 5 7 40 -7 43 -6 46 24 58 55 23 148 128 214 243
15 26 32 44 37 41 5 -3 7 -10 3 -15 -3 -5 -2 -8 3 -7 4 1 21 -5 36 -13 l28
-15 -43 -34 c-24 -19 -46 -34 -50 -32 -5 1 -7 -4 -5 -11 1 -6 -5 -11 -13 -9
-8 2 -12 0 -7 -4 4 -4 -16 -32 -45 -61 -57 -58 -59 -81 -3 -39 19 15 35 23 35
19 0 -4 5 0 11 11 9 15 13 16 20 5 7 -11 9 -10 9 3 0 9 17 30 37 45 21 15 47
36 57 46 26 23 33 22 40 -6 3 -13 16 -28 28 -34 20 -9 16 -13 -47 -43 -39 -18
-80 -33 -92 -34 -11 0 -19 -4 -17 -8 4 -6 -35 -23 -47 -21 -3 1 -11 -8 -18
-19 -12 -20 -12 -21 21 -13 18 4 43 8 55 9 11 1 19 4 16 9 -4 6 20 11 40 8 4
0 7 4 7 10 0 6 7 8 16 5 8 -3 13 -2 10 3 -3 5 2 11 12 14 9 2 24 8 33 11 13 6
18 0 21 -28 5 -43 1 -44 -98 -48 -40 -2 -70 -6 -67 -10 2 -5 -1 -8 -6 -8 -6 0
-11 -4 -11 -8 0 -10 232 -36 293 -34 33 1 40 -3 63 -41 196 -315 307 -408 453
-376 62 13 163 80 206 136 18 23 35 39 39 35 4 -3 4 0 1 9 -3 8 2 24 12 34 25
28 28 45 28 170 0 146 -14 221 -70 369 -14 36 -21 66 -17 66 4 0 2 4 -3 8 -6
4 -24 34 -39 66 -16 32 -46 76 -67 97 -22 22 -39 41 -39 44 0 11 62 4 93 -11z
m-1157 -9 c-10 -8 -24 -11 -30 -8 -6 4 0 10 14 14 36 10 37 10 16 -6z m378 -5
c4 -4 -2 -11 -14 -15 -21 -7 -39 6 -40 28 0 9 40 -1 54 -13z m237 -7 c13 -16
12 -17 -3 -4 -17 13 -22 21 -14 21 2 0 10 -8 17 -17z m729 -44 c0 -16 -7 -29
-16 -33 -15 -6 -15 -4 -3 10 9 12 10 18 3 21 -6 2 -9 15 -6 29 6 32 22 12 22
-27z m-870 -24 c0 -18 -7 -22 -51 -30 -30 -6 -37 -3 -43 12 -3 10 -9 24 -12
31 -3 6 1 12 9 12 7 0 22 9 33 21 l19 21 22 -27 c13 -14 23 -32 23 -40z m-523
39 c10 -26 -27 -55 -59 -46 -15 4 -28 10 -28 15 -1 46 -1 47 40 47 28 0 43 -5
47 -16z m245 -1 c22 -20 23 -32 2 -61 -15 -22 -17 -22 -35 -6 -10 9 -16 21
-13 26 3 4 2 8 -3 7 -23 -4 -24 3 -3 26 28 30 28 30 52 8z m-575 -38 c-15 -14
-48 -30 -73 -36 -24 -6 -44 -15 -44 -20 0 -13 68 -11 93 3 20 10 21 10 8 -5
-7 -10 -17 -17 -22 -17 -4 0 -20 -5 -36 -11 -24 -9 -26 -12 -12 -22 14 -11 11
-19 -27 -77 l-44 -65 0 135 c1 114 3 132 14 118 18 -24 81 -23 126 1 47 25 50
25 17 -4z m188 5 c-10 -11 -22 -17 -28 -13 -6 4 -3 12 8 20 28 20 41 16 20 -7z
m-288 4 c-3 -3 -12 -4 -19 -1 -8 3 -5 6 6 6 11 1 17 -2 13 -5z m530 -10 c9
-25 -10 -35 -45 -23 -20 7 -29 15 -25 25 7 19 62 18 70 -2z m488 -4 c18 -19
17 -20 -3 -20 -15 0 -22 6 -22 20 0 11 2 20 3 20 2 0 12 -9 22 -20z m127 2
c-7 -2 -12 -10 -12 -18 0 -15 -12 -19 -23 -7 -10 10 24 44 36 36 8 -5 7 -8 -1
-11z m-326 -16 c12 -51 -22 -62 -48 -17 -12 22 -13 31 -5 35 29 11 47 5 53
-18z m1014 -11 c0 -8 -4 -15 -10 -15 -5 0 -7 7 -4 15 4 8 8 15 10 15 2 0 4 -7
4 -15z m-1210 -31 c13 -14 11 -19 -9 -35 -23 -19 -23 -19 -43 6 -15 19 -17 29
-8 45 12 22 34 16 60 -16z m-373 10 c10 -27 -12 -49 -56 -55 -38 -5 -41 -3
-41 17 0 43 83 75 97 38z m117 3 c13 -10 16 -20 11 -36 -5 -18 -10 -20 -21
-10 -7 6 -28 9 -44 7 -24 -4 -30 -1 -25 9 3 8 5 18 5 23 0 8 20 16 46 19 5 0
18 -5 28 -12z m386 -41 c0 -26 -9 -16 -20 25 -9 31 -8 32 5 15 8 -11 15 -29
15 -40z m340 4 c0 -33 -21 -53 -51 -48 -17 2 -22 10 -23 36 -1 24 3 32 16 32
9 0 19 4 23 10 11 18 35 -2 35 -30z m-611 16 c24 -28 -18 -69 -56 -55 -20 7
-21 11 -12 39 12 33 47 41 68 16z m497 -12 c10 -41 1 -59 -34 -62 -25 -3 -32
0 -32 15 0 10 -3 28 -6 40 -5 17 -1 22 18 25 43 7 48 5 54 -18z m-286 6 c0 -5
-5 -10 -11 -10 -5 0 -7 5 -4 10 3 6 8 10 11 10 2 0 4 -4 4 -10z m174 -16 c11
-28 6 -41 -19 -52 -37 -17 -45 -15 -45 12 0 13 10 30 23 39 28 20 34 20 41 1z
m372 -30 c-9 -8 -16 -21 -16 -27 0 -6 -7 -1 -16 11 -15 21 -14 24 8 41 19 16
24 17 31 5 5 -9 2 -20 -7 -30z m852 34 c2 6 10 12 19 12 10 0 3 -14 -21 -42
-20 -23 -36 -46 -36 -50 0 -5 -5 -6 -11 -3 -6 5 -4 12 8 21 10 7 14 14 8 14
-5 0 -3 5 5 10 13 9 11 13 -10 30 l-25 21 29 -13 c23 -10 30 -10 34 0z m-1974
-23 c-4 -8 -11 -15 -16 -15 -6 0 -5 6 2 15 7 8 14 15 16 15 2 0 1 -7 -2 -15z
m426 -19 c0 -32 -23 -51 -40 -32 -9 12 -8 20 7 39 21 29 33 26 33 -7z m626
-33 c-12 -12 -41 12 -44 38 l-4 24 28 -27 c15 -15 25 -31 20 -35z m-506 39 c0
-5 -6 -17 -14 -28 -12 -15 -17 -17 -27 -7 -10 10 -9 16 7 28 21 16 34 19 34 7z
m-320 -24 c-1 -31 -23 -59 -39 -49 -7 5 -21 7 -30 4 -15 -4 -17 1 -13 26 4 30
16 38 60 40 17 1 22 -4 22 -21z m-120 -15 c0 -27 -12 -41 -43 -48 -25 -7 -27
-5 -27 22 0 37 6 43 42 43 20 0 28 -5 28 -17z m1690 -9 c0 -2 -9 0 -20 6 -11
6 -20 13 -20 16 0 2 9 0 20 -6 11 -6 20 -13 20 -16z m-1489 6 c28 -15 24 -24
-17 -39 -42 -15 -51 -10 -36 24 13 27 23 30 53 15z m-306 -19 c3 -10 1 -30 -4
-45 -8 -19 -17 -26 -38 -26 -26 0 -28 3 -28 37 0 21 5 41 10 45 19 14 54 8 60
-11z m893 -8 c-2 -16 -8 -27 -15 -25 -7 1 -12 -4 -10 -10 1 -8 -8 -13 -23 -13
-19 0 -26 6 -28 25 -2 21 3 28 30 36 49 16 50 16 46 -13z m86 -27 c-7 -28 -24
-38 -44 -26 -8 5 -10 15 -5 26 5 11 7 24 6 31 -2 16 32 22 42 6 4 -7 5 -23 1
-37z m-201 -4 c-3 -12 -9 -19 -14 -16 -11 6 -12 48 -2 58 11 11 23 -18 16 -42z
m315 -4 c2 -14 -4 -30 -12 -37 -12 -10 -20 -9 -40 6 -14 10 -26 27 -26 38 0
17 6 20 37 19 33 -1 38 -5 41 -26z m876 16 c3 -8 2 -12 -4 -9 -6 3 -10 10 -10
16 0 14 7 11 14 -7z m95 -6 c6 10 15 1 30 -32 29 -58 20 -73 -20 -34 -25 25
-36 30 -63 25 -23 -4 -33 -1 -33 8 0 8 7 11 15 7 12 -4 14 0 9 18 -4 17 -3 20
6 11 17 -17 30 -13 23 7 -5 14 -3 13 9 -3 13 -16 18 -17 24 -7z m-1585 -15
c-89 -138 -108 -163 -135 -172 -16 -5 -29 -7 -29 -3 0 4 -4 1 -9 -6 -7 -12
-12 -12 -31 0 -17 10 -24 10 -27 1 -7 -20 -51 26 -46 48 3 10 9 16 14 13 5 -3
6 2 3 10 -7 19 17 56 56 84 36 27 119 50 179 51 l43 1 -18 -27z m-586 -8 c-6
-14 -13 -23 -15 -21 -5 5 15 46 22 46 3 0 -1 -11 -7 -25z m1295 8 c3 -5 8 -28
11 -53 l7 -45 -25 45 c-29 53 -31 60 -12 60 8 0 17 -3 19 -7z m-988 -32 c0
-20 -5 -24 -33 -25 -17 -1 -32 1 -32 4 0 3 -3 15 -6 28 -6 22 -4 23 32 20 34
-3 39 -6 39 -27z m-107 -14 c3 -24 0 -27 -28 -27 -18 0 -29 4 -25 10 3 6 1 10
-4 10 -20 0 -11 20 12 30 31 12 42 7 45 -23z m810 -9 c-2 -32 -27 -58 -56 -58
l-25 0 21 23 c22 24 21 40 -3 31 -7 -3 -15 -1 -19 4 -3 5 5 8 17 7 12 -1 31 1
42 6 11 4 21 8 22 8 1 1 1 -9 1 -21z m84 -60 c-12 -12 -52 7 -52 25 0 20 14
34 35 39 16 3 21 -3 23 -26 2 -15 -1 -33 -6 -38z m152 56 c9 -22 8 -24 -9 -18
-8 4 -15 12 -15 20 0 19 16 18 24 -2z m-1146 -6 c20 -20 14 -44 -14 -57 -32
-14 -30 -15 -39 32 -7 34 -6 37 17 37 13 0 29 -5 36 -12z m1085 -16 c12 -18
-1 -50 -24 -62 -24 -13 -46 -3 -30 13 6 6 11 23 11 38 0 19 5 26 18 25 9 0 21
-7 25 -14z m-909 -38 l-7 -28 -9 24 c-6 16 -5 26 4 31 18 11 20 5 12 -27z
m-66 4 c17 -17 15 -45 -5 -52 -10 -4 -14 -4 -10 0 4 4 -4 17 -18 29 -13 13
-21 26 -18 29 10 10 38 7 51 -6z m1043 -31 c-17 -17 -43 -18 -37 0 3 8 6 18 6
23 0 5 8 10 18 12 20 4 29 -19 13 -35z m-241 -6 c0 -29 -19 -35 -42 -15 l-20
19 24 6 c36 11 38 10 38 -10z m70 -22 c0 -19 -25 -37 -36 -26 -3 2 -2 16 1 30
8 30 35 26 35 -4z m-110 -61 c0 -5 -14 0 -30 12 -17 12 -28 26 -25 31 4 5 1 9
-4 9 -6 0 -11 8 -11 18 1 12 10 6 35 -22 19 -22 35 -43 35 -48z m333 52 c6
-22 -3 -26 -20 -9 -12 12 -6 42 7 34 4 -3 10 -14 13 -25z m-147 -17 c-3 -8 -6
-17 -6 -19 0 -2 -9 -4 -21 -4 -15 0 -19 4 -15 16 3 9 6 19 6 24 0 4 9 6 21 3
12 -4 18 -11 15 -20z m74 -2 c0 -23 -14 -41 -31 -41 -22 0 -23 4 -9 31 11 19
40 27 40 10z m58 -29 c20 -13 3 -42 -25 -42 -14 0 -22 4 -18 10 4 6 10 8 15 5
5 -3 12 0 16 6 4 8 3 9 -4 5 -7 -4 -12 -1 -12 8 0 18 8 20 28 8z m-238 -18 c0
-9 -5 -14 -12 -12 -18 6 -21 28 -4 28 9 0 16 -7 16 -16z m60 -24 c-6 -11 -17
-20 -25 -20 -13 0 -13 3 -3 20 7 11 19 20 26 20 10 0 10 -5 2 -20z m81 -10 c4
0 6 -7 3 -15 -8 -19 -54 -20 -54 -2 0 19 12 29 28 22 7 -3 18 -5 23 -5z m149
-6 c0 -8 -4 -12 -10 -9 -5 3 -10 10 -10 16 0 5 5 9 10 9 6 0 10 -7 10 -16z
m-70 -34 c0 -6 -7 -13 -15 -16 -20 -8 -48 3 -40 16 8 13 55 13 55 0z m-160
-37 c0 -26 -1 -26 -14 -8 -14 20 -12 35 5 35 5 0 9 -12 9 -27z m240 15 c0 -4
-12 -8 -26 -8 -14 0 -23 4 -19 9 6 11 45 10 45 -1z m-170 -16 c0 -13 -28 -47
-34 -42 -10 10 6 50 20 50 8 0 14 -4 14 -8z m71 -22 c5 0 9 -7 9 -15 0 -9 -9
-15 -25 -15 -19 0 -25 5 -25 21 0 15 4 19 16 15 9 -3 20 -6 25 -6z m74 -41 c0
-17 -6 -25 -22 -27 -26 -4 -27 -2 -11 33 14 31 33 28 33 -6z m46 -52 c-18 -18
-23 -1 -9 29 13 28 13 28 16 5 2 -13 -1 -28 -7 -34z m-201 27 c0 -14 -3 -14
-15 -4 -8 7 -15 14 -15 16 0 2 7 4 15 4 8 0 15 -7 15 -16z m58 -21 c-2 -10
-11 -19 -21 -21 -16 -3 -17 -1 -7 17 13 25 33 28 28 4z m81 -29 c5 -4 -19 -34
-28 -34 -17 1 -31 18 -25 34 4 12 13 15 28 10 11 -4 23 -8 25 -10z m56 -24 c8
-13 -13 -40 -31 -40 -11 0 -11 5 -2 25 12 27 23 31 33 15z m55 -35 c0 -8 -2
-15 -4 -15 -2 0 -12 -3 -21 -6 -15 -6 -15 -4 -4 15 16 25 29 27 29 6z m-150
-9 c0 -11 -19 -15 -25 -6 -3 5 1 10 9 10 9 0 16 -2 16 -4z m70 -51 c0 -8 -6
-15 -14 -15 -7 0 -19 7 -26 15 -11 13 -8 15 14 15 16 0 26 -5 26 -15z m128
-10 c-3 -3 -9 2 -12 12 -6 14 -5 15 5 6 7 -7 10 -15 7 -18z m-48 1 c0 -20 -13
-27 -30 -15 -13 8 -13 10 0 19 21 14 30 12 30 -4z m-482 -92 c-6 -13 -15 -24
-21 -24 -5 0 -6 -7 -3 -16 4 -12 2 -15 -9 -10 -12 4 -13 2 -5 -13 8 -16 7 -18
-12 -13 -17 4 -20 2 -15 -11 4 -11 1 -17 -8 -17 -23 0 -18 -14 13 -32 15 -10
20 -17 12 -17 -8 0 -24 6 -34 14 -19 14 -18 16 7 72 14 32 31 78 37 102 l12
44 18 -28 c15 -22 16 -33 8 -51z m582 72 c0 -2 -7 -7 -16 -10 -8 -3 -12 -2 -9
4 6 10 25 14 25 6z m-488 -144 c-7 -2 -9 -8 -6 -14 5 -7 0 -9 -14 -6 -18 5
-20 3 -12 -12 6 -12 6 -20 0 -22 -5 -2 -11 -14 -12 -28 -2 -21 -7 -25 -35 -25
-25 0 -32 4 -27 15 3 8 15 47 27 87 l21 72 35 -32 c22 -19 31 -33 23 -35z m78
-47 c7 -8 21 -15 32 -15 18 0 18 -1 4 -16 -9 -8 -14 -19 -11 -24 5 -7 -56 -42
-63 -36 -6 7 11 106 18 106 4 0 13 -7 20 -15z m-83 -41 c-3 -3 -12 -4 -19 -1
-8 3 -5 6 6 6 11 1 17 -2 13 -5z m220 -28 c0 -7 -9 -18 -19 -25 -16 -10 -18
-8 -18 18 0 23 4 28 18 24 10 -2 19 -10 19 -17z"/>
<path d="M1973 2395 c0 -8 4 -12 9 -9 5 3 6 10 3 15 -9 13 -12 11 -12 -6z"/>
<path d="M1745 1871 c-3 -5 -2 -12 3 -15 5 -3 9 1 9 9 0 17 -3 19 -12 6z"/>
<path d="M1720 3039 c0 -5 5 -7 10 -4 6 3 10 8 10 11 0 2 -4 4 -10 4 -5 0 -10
-5 -10 -11z"/>
<path d="M3360 2240 c-9 -6 -10 -10 -3 -10 6 0 15 5 18 10 8 12 4 12 -15 0z"/>
<path d="M3575 1889 c-4 -6 -5 -12 -2 -15 2 -3 7 2 10 11 7 17 1 20 -8 4z"/>
<path d="M1063 1160 c-18 -10 -39 -33 -48 -50 -28 -55 -96 -332 -93 -379 3
-41 9 -50 68 -105 85 -79 172 -154 238 -205 45 -36 64 -61 46 -61 -24 0 -93
24 -88 31 3 5 -2 6 -11 3 -9 -4 -37 1 -63 11 -76 28 -292 136 -292 147 0 5 14
23 30 40 30 30 38 53 21 60 -5 2 -34 26 -64 55 -36 34 -71 57 -105 68 -73 24
-96 10 -147 -86 -41 -79 -92 -159 -110 -171 -5 -4 -6 -8 -1 -8 4 0 2 -10 -7
-23 -13 -21 -13 -27 4 -61 10 -21 16 -43 12 -49 -3 -5 -2 -7 3 -4 11 7 96 -57
89 -67 -3 -3 -2 -4 1 -1 4 2 34 -15 68 -39 33 -24 87 -58 119 -76 31 -17 57
-37 57 -43 0 -6 3 -8 6 -4 3 3 32 -6 63 -20 199 -90 455 -135 587 -102 60 15
87 51 114 151 12 46 31 100 42 121 18 36 20 38 41 24 76 -49 250 -143 318
-173 224 -95 420 -99 638 -10 34 14 67 24 74 22 7 -1 8 -1 4 2 -4 2 27 22 70
44 42 21 107 59 143 83 46 31 68 40 77 33 11 -9 31 -59 38 -96 2 -9 4 -19 6
-22 1 -3 3 -9 4 -15 1 -5 5 -17 8 -25 3 -8 11 -32 17 -52 23 -76 107 -105 270
-95 146 9 278 45 408 111 29 14 52 23 52 19 0 -5 4 -3 8 3 4 6 27 22 52 34 59
30 183 113 243 163 90 75 96 123 27 221 -38 54 -70 116 -84 162 -18 59 -87 74
-161 36 -42 -21 -177 -151 -160 -153 6 -1 17 -2 25 -3 8 0 14 -7 12 -14 -1 -8
2 -11 7 -7 9 5 37 -33 29 -40 -24 -20 -171 -86 -183 -81 -9 3 -13 2 -10 -4 8
-13 -64 -44 -174 -76 -98 -28 -91 -27 -91 -10 0 7 35 39 78 71 42 32 93 73
114 93 22 21 41 31 49 27 7 -5 10 -4 6 2 -8 13 37 56 48 46 4 -5 5 -3 2 3 -3
6 7 24 24 39 42 41 54 93 34 151 -9 26 -17 64 -18 84 -1 21 -5 36 -8 34 -3 -1
-14 29 -24 69 -33 130 -64 172 -138 184 -51 8 -97 -11 -163 -68 -33 -28 -77
-66 -99 -85 -22 -18 -53 -45 -70 -59 -16 -14 -68 -58 -115 -97 -47 -40 -89
-77 -95 -83 -45 -49 -313 -228 -328 -218 -5 3 -7 2 -4 -4 6 -10 -75 -54 -173
-94 -41 -17 -75 -22 -135 -22 -93 0 -146 18 -299 103 -83 46 -95 56 -90 74 4
16 3 18 -5 6 -8 -12 -13 -12 -35 0 -14 7 -26 19 -26 26 0 8 -6 11 -12 9 -24
-10 -544 417 -532 436 3 5 2 8 -3 7 -4 -2 -24 9 -43 24 -68 52 -132 62 -187
28z m127 -41 c50 -30 80 -60 73 -73 -3 -6 -2 -8 2 -3 11 10 46 -23 38 -36 -3
-6 -1 -7 5 -3 7 4 52 -28 109 -77 181 -155 401 -318 561 -414 133 -80 240
-115 337 -112 39 2 75 5 80 9 6 3 48 21 95 40 47 19 90 38 95 42 46 37 168
107 177 102 6 -4 8 -3 5 3 -7 11 39 46 60 46 7 0 11 2 9 5 -5 5 89 82 100 82
4 0 12 7 18 16 6 8 20 17 31 18 11 2 19 8 18 14 -1 6 14 23 35 38 20 16 55 45
77 65 22 21 59 52 81 71 23 18 75 63 116 100 82 74 117 92 164 84 51 -10 71
-43 103 -164 l29 -112 -24 0 c-34 0 -59 -14 -124 -69 -30 -25 -59 -45 -65 -43
-5 2 -7 0 -2 -4 10 -10 -23 -45 -36 -37 -5 3 -7 2 -4 -4 12 -19 -355 -309
-375 -297 -6 4 -8 3 -5 -3 7 -11 -69 -66 -90 -66 -7 0 -11 -3 -8 -5 9 -9 -95
-63 -107 -56 -6 4 -8 3 -5 -3 9 -14 -166 -98 -268 -128 -104 -31 -247 -43
-315 -26 -72 19 -75 19 -75 21 0 1 -10 3 -23 6 -66 12 -286 120 -276 136 4 6
3 8 -4 5 -15 -10 -43 3 -35 16 3 6 1 7 -6 3 -19 -12 -369 234 -363 255 1 5 -1
8 -5 7 -18 -3 -45 16 -53 38 -6 14 -15 21 -23 19 -13 -6 -54 31 -57 50 -1 6
-6 9 -11 7 -6 -1 -42 30 -82 69 -81 81 -121 109 -156 109 -21 0 -23 3 -16 36
3 20 11 48 17 63 6 14 10 30 9 35 -1 4 5 30 14 57 28 83 87 109 155 68z m2257
-396 c-23 -26 -25 -45 -4 -48 9 -2 15 0 12 4 -2 5 7 19 22 32 l26 24 -16 -25
c-33 -48 -10 -56 36 -12 l30 27 -23 -32 c-24 -33 -22 -55 3 -35 11 9 13 7 12
-11 -2 -23 -145 -156 -200 -184 -16 -8 -40 -25 -52 -36 -14 -13 -23 -16 -23
-8 0 7 -6 11 -12 9 -16 -6 -35 13 -48 48 -10 25 -7 30 42 75 32 30 59 47 68
43 8 -3 11 -2 7 2 -6 7 120 144 132 144 2 0 -3 -8 -12 -17z m-2333 -63 c5 0 6
9 3 20 -4 16 -2 18 13 10 27 -14 33 -12 26 7 -5 13 0 11 18 -6 21 -20 24 -27
14 -40 -10 -13 -10 -14 1 -4 11 10 29 0 87 -49 41 -33 71 -65 67 -71 -3 -6 -1
-7 5 -3 6 3 15 -1 20 -11 13 -23 -5 -71 -29 -78 -10 -4 -19 -13 -19 -22 0 -11
-10 -6 -32 16 -17 17 -36 31 -40 31 -5 0 -6 5 -2 12 4 7 3 8 -5 4 -17 -11
-197 148 -197 174 0 20 1 20 13 4 12 -16 13 -16 19 0 4 10 -1 26 -12 39 -12
14 -7 12 12 -5 16 -16 34 -28 38 -28z m-361 29 c10 8 21 2 47 -24 l34 -35 -25
-27 c-13 -16 -25 -30 -26 -32 -6 -9 -102 65 -106 81 -3 10 -1 16 4 12 5 -3 9
0 9 5 0 6 6 10 13 9 6 -2 11 3 9 11 -3 12 0 12 12 1 12 -9 20 -10 29 -1z
m3139 -17 c17 -17 -2 -51 -44 -76 l-41 -24 -24 29 c-24 28 -24 56 0 43 7 -4 9
-3 4 1 -4 5 0 16 9 26 16 18 78 19 96 1z m-3249 -57 c17 -15 25 -24 17 -19 -8
4 -11 3 -7 -1 4 -5 13 -10 20 -11 7 -1 41 -20 76 -42 99 -65 268 -147 368
-180 174 -59 305 -72 426 -46 l29 7 -15 -30 c-9 -16 -25 -65 -36 -108 -11 -43
-28 -86 -38 -96 -10 -10 -42 -23 -72 -29 -63 -12 -154 -13 -148 -2 3 4 -25 8
-62 9 -46 1 -98 11 -161 33 -98 32 -350 156 -350 171 0 5 -6 9 -14 9 -21 0
-194 137 -198 157 -2 10 -1 30 3 45 10 37 59 99 72 91 6 -3 7 -1 3 5 -4 6 3
30 15 53 17 35 23 40 30 26 5 -9 24 -28 42 -42z m3357 37 c0 -4 25 -45 55 -91
30 -46 55 -92 55 -103 0 -27 -85 -112 -102 -102 -7 4 -10 4 -6 -1 9 -9 -63
-66 -74 -59 -5 3 -11 -2 -14 -11 -4 -9 -13 -14 -21 -11 -8 3 -12 2 -9 -3 8
-12 -63 -53 -76 -45 -6 4 -8 2 -5 -3 9 -14 -136 -84 -254 -121 -120 -39 -249
-56 -345 -47 -96 9 -119 26 -134 103 -7 31 -22 82 -35 113 l-22 55 51 -13 c95
-24 232 -10 390 41 44 14 84 22 89 19 6 -3 7 -1 3 5 -4 7 -2 12 4 12 42 0 364
193 414 249 19 21 36 27 36 13z"/>
<path d="M1692 590 c-17 -27 -15 -33 8 -27 11 3 20 3 20 0 0 -15 -53 -73 -66
-73 -22 0 -16 -26 11 -44 30 -20 35 -20 35 -1 0 9 12 34 28 57 24 37 27 39 30
20 4 -25 12 -28 30 -10 18 18 14 31 -16 50 -15 10 -36 24 -47 32 -19 14 -22
14 -33 -4z"/>
<path d="M2882 598 c-15 -15 -16 -45 -1 -53 6 -4 8 -12 6 -19 -3 -8 8 -10 34
-8 25 3 39 0 39 -8 0 -7 -8 -9 -20 -5 -16 5 -19 2 -17 -23 2 -27 4 -29 30 -20
37 13 50 40 36 72 -7 14 -21 28 -31 32 -13 4 -18 12 -15 23 3 13 -3 17 -22 19
-15 1 -32 -3 -39 -10z"/>
<path d="M2807 546 c-16 -13 -16 -14 5 -29 13 -8 31 -29 41 -46 17 -29 17 -32
1 -38 -20 -7 -64 40 -64 69 0 9 -3 19 -8 21 -7 5 -52 -26 -52 -35 0 -3 20 -26
44 -52 35 -38 49 -47 71 -44 15 2 34 12 41 24 12 18 11 26 -11 70 -14 27 -25
55 -25 62 0 16 -20 15 -43 -2z"/>
<path d="M2695 541 c-3 -5 -2 -12 3 -15 5 -3 9 1 9 9 0 17 -3 19 -12 6z"/>
<path d="M1807 502 c-3 -15 -22 -46 -42 -67 l-36 -40 33 -15 c18 -8 37 -21 41
-27 4 -7 17 -13 27 -13 11 0 20 -4 20 -10 0 -10 91 -60 110 -60 5 0 10 15 10
33 0 17 5 49 11 71 9 32 8 41 -6 55 -10 10 -18 12 -23 6 -4 -6 -20 -21 -36
-33 -16 -12 -25 -22 -21 -22 4 0 2 -7 -5 -15 -16 -19 -50 -20 -50 -1 0 24 12
46 24 46 7 0 19 12 27 26 13 25 12 28 -25 60 -22 19 -43 34 -46 34 -4 0 -10
-13 -13 -28z m46 -47 c-5 -13 -23 -22 -23 -11 0 15 14 35 21 31 4 -3 6 -12 2
-20z m77 -125 c0 -5 -7 -10 -15 -10 -8 0 -15 5 -15 10 0 6 7 10 15 10 8 0 15
-4 15 -10z"/>
<path d="M2995 460 c3 -6 1 -10 -6 -10 -7 0 -10 -3 -6 -6 3 -3 13 -2 22 4 16
8 16 9 1 15 -10 4 -15 3 -11 -3z"/>
<path d="M2645 444 c-18 -13 -18 -17 -5 -27 21 -16 60 -81 60 -100 0 -8 7 -18
16 -21 8 -3 13 -2 10 2 -3 5 11 17 30 27 28 15 34 24 32 44 -4 30 -28 41 -28
12 0 -12 -6 -21 -15 -21 -17 0 -45 50 -45 80 0 24 -26 26 -55 4z"/>
<path d="M2543 396 c-23 -11 -32 -36 -13 -36 13 0 50 -74 50 -100 0 -12 3 -20
8 -18 4 2 24 10 45 18 30 11 37 19 37 42 0 18 -5 28 -15 28 -8 0 -15 -6 -15
-14 0 -8 -4 -17 -10 -21 -11 -7 -49 64 -47 89 2 23 -11 27 -40 12z"/>
<path d="M2044 392 c-5 -4 -11 -16 -11 -28 -2 -31 -30 -94 -42 -94 -20 0 -11
-17 14 -28 23 -11 25 -10 25 12 0 14 3 32 7 42 5 14 11 6 22 -31 20 -60 36
-67 51 -20 7 21 16 32 22 29 7 -4 8 -2 4 5 -10 15 3 53 16 45 6 -4 8 1 6 12
-2 12 -13 20 -31 22 -24 3 -28 0 -23 -15 3 -10 2 -24 -3 -31 -5 -9 -10 -1 -15
26 -6 42 -25 65 -42 54z"/>
<path d="M2918 383 c7 -3 16 -2 19 1 4 3 -2 6 -13 5 -11 0 -14 -3 -6 -6z"/>
<path d="M2433 356 c-48 -13 -62 -24 -45 -35 6 -4 15 -28 18 -54 6 -43 5 -47
-15 -47 -22 0 -24 7 -25 85 -1 34 -6 38 -41 29 -26 -6 -32 -18 -16 -28 5 -4
12 -25 16 -49 4 -23 14 -50 23 -59 19 -22 55 -23 72 -3 7 9 20 13 28 10 11 -4
12 -2 5 7 -14 17 -24 88 -17 115 5 17 9 19 19 10 9 -9 10 -14 1 -19 -8 -6 -7
-8 2 -8 15 0 35 -46 33 -78 -1 -21 2 -23 32 -17 41 9 46 14 26 28 -18 14 -39
69 -39 103 0 27 -10 28 -77 10z"/>
<path d="M2181 314 c-12 -15 -21 -32 -22 -38 0 -6 -2 -19 -4 -30 -4 -23 80
-116 106 -116 23 0 24 8 3 31 -15 16 -14 19 4 39 30 32 33 96 7 120 -30 28
-69 25 -94 -6z m67 -44 c3 -42 -10 -65 -32 -57 -16 7 -22 51 -10 82 11 29 39
13 42 -25z"/>
<path d="M1086 608 c3 -5 10 -6 15 -3 13 9 11 12 -6 12 -8 0 -12 -4 -9 -9z"/>
<path d="M788 633 c7 -3 16 -2 19 1 4 3 -2 6 -13 5 -11 0 -14 -3 -6 -6z"/>
<path d="M710 494 c0 -21 -49 -84 -66 -84 -8 0 -14 -6 -14 -14 0 -18 27 -39
40 -31 5 3 10 0 10 -7 0 -7 16 -23 35 -35 40 -26 45 -27 45 -12 0 20 54 99 68
99 15 0 16 16 2 25 -6 4 -8 10 -5 15 10 15 -40 -3 -62 -23 -26 -23 -27 -20
-13 18 7 18 6 31 -3 45 -14 24 -37 26 -37 4z m40 -119 c0 -2 -10 -9 -22 -15
-22 -11 -22 -10 -4 4 21 17 26 19 26 11z"/>
<path d="M849 418 c-1 -2 -3 -13 -4 -25 -3 -26 -43 -93 -56 -93 -5 0 -9 -4 -9
-9 0 -11 66 -51 85 -51 16 0 38 34 29 43 -3 3 0 15 8 26 8 12 17 19 20 16 2
-3 9 11 15 30 6 19 7 32 2 29 -5 -3 -24 4 -43 15 -31 20 -44 25 -47 19z m55
-69 c-9 -15 -34 -10 -28 5 3 8 12 12 20 9 8 -3 11 -9 8 -14z m-35 -67 c0 -11
-2 -12 -6 -4 -2 6 -9 10 -14 6 -10 -6 -12 9 -3 19 10 10 24 -2 23 -21z"/>
<path d="M953 341 c6 -24 -11 -53 -26 -44 -8 4 -7 1 1 -9 11 -14 10 -20 -7
-37 -12 -12 -21 -25 -21 -29 0 -4 23 -18 50 -29 28 -12 48 -18 45 -13 -5 8 33
24 50 20 6 -1 7 2 3 6 -4 4 -3 13 3 20 18 22 13 84 -7 99 -11 8 -25 15 -32 15
-7 0 -11 3 -9 8 3 4 -8 8 -25 9 -25 2 -29 -1 -25 -16z m65 -60 c4 -25 -23 -61
-45 -61 -7 0 -13 2 -13 5 0 12 24 55 31 55 5 0 6 7 2 16 -4 12 -2 15 8 12 8
-2 15 -15 17 -27z"/>
<path d="M1090 300 c-7 -4 -9 -13 -6 -19 4 -6 4 -17 -1 -23 -4 -7 -8 -15 -9
-18 -6 -31 -18 -60 -25 -60 -19 0 -8 -28 14 -34 33 -9 49 -7 42 4 -9 14 5 71
15 65 4 -3 6 3 3 14 -3 10 0 22 6 25 6 4 11 13 11 19 0 18 -35 37 -50 27z"/>
<path d="M1159 259 c-1 -42 -9 -73 -25 -97 -18 -27 -11 -39 26 -44 21 -2 25 1
22 21 -3 31 16 101 28 101 6 0 10 7 10 15 0 8 -6 15 -14 15 -8 0 -21 3 -30 6
-12 5 -16 0 -17 -17z"/>
<path d="M1260 255 c-35 -20 -41 -45 -18 -83 11 -17 17 -38 15 -45 -4 -7 -8
-3 -12 11 -10 30 -35 28 -35 -3 0 -15 7 -28 18 -32 9 -4 20 -10 23 -15 11 -16
49 27 54 60 2 17 0 32 -5 32 -5 0 -14 10 -20 23 -10 20 -10 20 3 5 20 -25 24
-23 29 12 4 24 1 30 -14 30 -11 0 -16 5 -13 10 7 12 7 12 -25 -5z"/>
<path d="M3918 549 c-21 -12 -24 -52 -5 -68 8 -6 28 -14 46 -17 17 -4 34 -11
38 -17 4 -6 -3 -8 -19 -4 -33 9 -42 -2 -21 -25 11 -12 12 -18 3 -18 -18 0 -80
71 -77 88 3 23 -17 24 -40 2 l-22 -19 35 -35 c19 -19 34 -43 34 -54 0 -12 4
-23 10 -27 14 -9 130 74 130 94 0 34 -29 61 -66 61 -19 0 -33 4 -30 9 3 5 16
7 27 4 19 -5 20 -4 10 16 -13 23 -27 26 -53 10z"/>
<path d="M3760 441 c-8 -6 -18 -7 -24 -4 -5 3 -7 2 -4 -3 3 -5 -3 -17 -14 -26
-10 -10 -18 -16 -18 -13 0 3 -9 1 -20 -5 -20 -11 -28 -40 -10 -40 5 0 15 -10
21 -22 12 -23 12 -23 -10 -4 -29 26 -75 26 -139 0 l-23 -10 20 -23 c32 -37 39
-101 11 -101 -14 0 -42 71 -35 89 8 21 -14 31 -42 18 -22 -10 -33 -37 -14 -37
5 0 17 -20 27 -45 21 -56 44 -71 82 -53 29 15 33 41 17 123 -8 37 -7 39 9 26
24 -20 54 -83 48 -100 -4 -11 2 -12 24 -7 38 10 42 15 23 29 -9 7 -21 23 -28
35 -13 24 -13 24 34 -3 59 -35 75 -24 46 33 -11 22 -17 42 -14 46 4 3 1 6 -5
6 -7 0 -12 7 -12 15 0 8 6 15 13 15 14 0 57 -71 57 -94 0 -21 8 -20 47 7 18
12 36 32 39 44 18 69 -52 137 -106 104z m56 -48 c14 -19 18 -55 7 -66 -6 -7
-52 59 -53 76 0 14 33 7 46 -10z"/>
<path d="M3340 255 c0 -8 5 -15 10 -15 6 0 10 -9 10 -21 0 -18 -3 -17 -26 10
-32 39 -81 45 -68 9 4 -13 8 -48 8 -80 0 -53 1 -57 26 -60 19 -3 26 1 27 14 1
10 -2 18 -8 18 -5 0 -9 14 -9 31 l0 31 33 -40 c48 -61 57 -55 54 38 l-2 80
-27 0 c-18 0 -28 -5 -28 -15z"/>
<path d="M3180 246 c0 -8 5 -18 11 -22 7 -4 9 -28 5 -65 l-5 -59 34 0 c35 0
48 21 24 36 -8 4 -10 27 -6 65 l5 59 -34 0 c-23 0 -34 -5 -34 -14z"/>
<path d="M3007 909 c7 -7 15 -10 18 -7 3 3 -2 9 -12 12 -14 6 -15 5 -6 -5z"/>
</g>
</svg>
